<svg xmlns="http://www.w3.org/2000/svg" viewBox="0 0 800 600" preserveAspectRatio="none">
  <defs>
    <linearGradient id="floralGradient" x1="0%" y1="0%" x2="100%" y2="100%">
      <stop offset="0%" style="stop-color:#8B4513;stop-opacity:1" />
      <stop offset="50%" style="stop-color:#A0522D;stop-opacity:1" />
      <stop offset="100%" style="stop-color:#6B3410;stop-opacity:1" />
    </linearGradient>
    <radialGradient id="leafGradient">
      <stop offset="0%" style="stop-color:#90EE90;stop-opacity:1" />
      <stop offset="100%" style="stop-color:#228B22;stop-opacity:1" />
    </radialGradient>
  </defs>
  
  <!-- Main frame border -->
  <rect x="15" y="15" width="770" height="570" 
        fill="none" 
        stroke="url(#floralGradient)" 
        stroke-width="30"
        rx="15"/>
  
  <!-- Inner line -->
  <rect x="50" y="50" width="700" height="500" 
        fill="none" 
        stroke="#D4AF37" 
        stroke-width="2"/>
  
  <!-- Floral decorations - Top Left Corner -->
  <g transform="translate(40, 40)">
    <ellipse cx="0" cy="0" rx="15" ry="8" fill="#FFB6C1" transform="rotate(0)"/>
    <ellipse cx="0" cy="0" rx="15" ry="8" fill="#FFB6C1" transform="rotate(72)"/>
    <ellipse cx="0" cy="0" rx="15" ry="8" fill="#FFB6C1" transform="rotate(144)"/>
    <ellipse cx="0" cy="0" rx="15" ry="8" fill="#FFB6C1" transform="rotate(216)"/>
    <ellipse cx="0" cy="0" rx="15" ry="8" fill="#FFB6C1" transform="rotate(288)"/>
    <circle cx="0" cy="0" r="5" fill="#FFD700"/>
    <ellipse cx="-20" cy="10" rx="8" ry="12" fill="url(#leafGradient)" transform="rotate(-30 -20 10)"/>
    <ellipse cx="10" cy="-20" rx="8" ry="12" fill="url(#leafGradient)" transform="rotate(30 10 -20)"/>
  </g>
  
  <!-- Floral decorations - Top Right Corner -->
  <g transform="translate(760, 40)">
    <ellipse cx="0" cy="0" rx="15" ry="8" fill="#FFB6C1" transform="rotate(0)"/>
    <ellipse cx="0" cy="0" rx="15" ry="8" fill="#FFB6C1" transform="rotate(72)"/>
    <ellipse cx="0" cy="0" rx="15" ry="8" fill="#FFB6C1" transform="rotate(144)"/>
    <ellipse cx="0" cy="0" rx="15" ry="8" fill="#FFB6C1" transform="rotate(216)"/>
    <ellipse cx="0" cy="0" rx="15" ry="8" fill="#FFB6C1" transform="rotate(288)"/>
    <circle cx="0" cy="0" r="5" fill="#FFD700"/>
    <ellipse cx="20" cy="10" rx="8" ry="12" fill="url(#leafGradient)" transform="rotate(30 20 10)"/>
    <ellipse cx="-10" cy="-20" rx="8" ry="12" fill="url(#leafGradient)" transform="rotate(-30 -10 -20)"/>
  </g>
  
  <!-- Floral decorations - Bottom Left Corner -->
  <g transform="translate(40, 560)">
    <ellipse cx="0" cy="0" rx="15" ry="8" fill="#FFB6C1" transform="rotate(0)"/>
    <ellipse cx="0" cy="0" rx="15" ry="8" fill="#FFB6C1" transform="rotate(72)"/>
    <ellipse cx="0" cy="0" rx="15" ry="8" fill="#FFB6C1" transform="rotate(144)"/>
    <ellipse cx="0" cy="0" rx="15" ry="8" fill="#FFB6C1" transform="rotate(216)"/>
    <ellipse cx="0" cy="0" rx="15" ry="8" fill="#FFB6C1" transform="rotate(288)"/>
    <circle cx="0" cy="0" r="5" fill="#FFD700"/>
    <ellipse cx="-20" cy="-10" rx="8" ry="12" fill="url(#leafGradient)" transform="rotate(30 -20 -10)"/>
    <ellipse cx="10" cy="20" rx="8" ry="12" fill="url(#leafGradient)" transform="rotate(-30 10 20)"/>
  </g>
  
  <!-- Floral decorations - Bottom Right Corner -->
  <g transform="translate(760, 560)">
    <ellipse cx="0" cy="0" rx="15" ry="8" fill="#FFB6C1" transform="rotate(0)"/>
    <ellipse cx="0" cy="0" rx="15" ry="8" fill="#FFB6C1" transform="rotate(72)"/>
    <ellipse cx="0" cy="0" rx="15" ry="8" fill="#FFB6C1" transform="rotate(144)"/>
    <ellipse cx="0" cy="0" rx="15" ry="8" fill="#FFB6C1" transform="rotate(216)"/>
    <ellipse cx="0" cy="0" rx="15" ry="8" fill="#FFB6C1" transform="rotate(288)"/>
    <circle cx="0" cy="0" r="5" fill="#FFD700"/>
    <ellipse cx="20" cy="-10" rx="8" ry="12" fill="url(#leafGradient)" transform="rotate(-30 20 -10)"/>
    <ellipse cx="-10" cy="20" rx="8" ry="12" fill="url(#leafGradient)" transform="rotate(30 -10 20)"/>
  </g>
  
  <!-- Side decorations -->
  <g transform="translate(400, 30)">
    <ellipse cx="0" cy="0" rx="12" ry="6" fill="#FFB6C1" transform="rotate(0)"/>
    <ellipse cx="0" cy="0" rx="12" ry="6" fill="#FFB6C1" transform="rotate(60)"/>
    <ellipse cx="0" cy="0" rx="12" ry="6" fill="#FFB6C1" transform="rotate(120)"/>
    <circle cx="0" cy="0" r="4" fill="#FFD700"/>
  </g>
  
  <g transform="translate(400, 570)">
    <ellipse cx="0" cy="0" rx="12" ry="6" fill="#FFB6C1" transform="rotate(0)"/>
    <ellipse cx="0" cy="0" rx="12" ry="6" fill="#FFB6C1" transform="rotate(60)"/>
    <ellipse cx="0" cy="0" rx="12" ry="6" fill="#FFB6C1" transform="rotate(120)"/>
    <circle cx="0" cy="0" r="4" fill="#FFD700"/>
  </g>
</svg>
