<?xml version="1.0" standalone="no"?>
<!DOCTYPE svg PUBLIC "-//W3C//DTD SVG 20010904//EN"
 "http://www.w3.org/TR/2001/REC-SVG-20010904/DTD/svg10.dtd">
<svg version="1.0" xmlns="http://www.w3.org/2000/svg"
 width="1024.000000pt" height="1024.000000pt" viewBox="0 0 1024.000000 1024.000000"
 preserveAspectRatio="xMidYMid meet">

<g transform="translate(0.000000,1024.000000) scale(0.100000,-0.100000)"
fill="#000000" stroke="none">
<path d="M2775 10214 c-13 -16 -34 -27 -60 -30 -63 -9 -92 -24 -104 -52 -37
-92 -41 -234 -10 -363 11 -49 25 -92 30 -95 6 -3 28 6 50 21 46 30 77 28 60
-4 -6 -10 -30 -30 -54 -45 -37 -21 -44 -29 -40 -50 l5 -25 37 20 c20 11 61 36
91 55 85 53 120 47 234 -40 66 -50 107 -49 174 3 67 53 74 77 70 252 -3 135
-2 146 20 180 21 35 56 56 97 60 75 6 112 -18 173 -110 52 -78 86 -98 180
-106 139 -13 159 -38 172 -209 5 -61 18 -145 30 -186 16 -57 22 -114 25 -240
6 -196 9 -219 41 -282 133 -261 484 -184 484 107 0 84 -14 145 -75 330 -56
168 -62 251 -25 348 26 68 95 147 129 147 28 0 73 -23 131 -67 38 -30 51 -34
84 -30 22 3 61 21 92 44 77 54 120 75 169 81 69 7 111 -12 142 -66 14 -26 57
-78 94 -117 82 -84 99 -122 99 -212 -1 -87 -13 -119 -83 -221 -68 -99 -74
-137 -29 -182 76 -75 251 -67 403 19 46 25 73 33 159 41 145 15 180 37 180
114 0 49 -46 98 -128 139 -36 18 -74 44 -85 58 -24 33 -36 93 -37 180 0 101
-25 217 -82 396 l-53 163 -70 0 -70 0 -35 -68 c-20 -38 -43 -68 -52 -70 -27
-5 -22 23 13 84 l30 54 -483 0 -483 0 -43 -80 c-47 -86 -58 -98 -75 -81 -9 9
-3 28 23 78 19 37 37 70 38 75 2 4 -312 8 -697 8 -694 0 -701 0 -701 -20 0
-11 -6 -20 -13 -20 -8 0 -22 9 -32 20 -28 31 -113 27 -140 -6z m2095 1 c0 -31
-59 -145 -74 -145 -23 0 -20 22 13 95 18 40 36 65 45 65 9 0 16 -7 16 -15z
m-2135 -75 c7 -11 -111 -180 -126 -180 -28 0 -15 37 37 109 56 78 75 93 89 71z
m1336 -147 c59 -39 89 -64 89 -77 0 -26 -21 -18 -122 48 -82 53 -109 86 -72
86 8 0 56 -26 105 -57z m1163 35 c14 -22 -12 -52 -37 -42 -17 6 -23 44 -10 58
11 11 35 3 47 -16z m-2239 -108 c0 -18 -6 -26 -23 -28 -13 -2 -25 3 -28 12
-10 26 4 48 28 44 17 -2 23 -10 23 -28z m-178 -156 c9 -23 -13 -40 -32 -24
-12 10 -13 16 -4 26 15 18 28 18 36 -2z m1270 -416 c4 -7 8 -53 8 -103 1 -68
7 -103 23 -143 27 -64 28 -98 5 -110 -44 -23 -88 38 -114 158 -14 64 -8 172
10 194 16 19 57 21 68 4z m1590 -74 c8 -21 -13 -42 -28 -27 -13 13 -5 43 11
43 6 0 13 -7 17 -16z m-99 -46 c-7 -21 -77 -55 -137 -67 -40 -8 -73 -8 -110
-1 -62 12 -71 16 -71 36 0 12 14 13 83 8 68 -5 91 -3 137 14 65 24 103 28 98
10z m-1374 -274 c20 -19 20 -24 0 -52 -19 -28 -51 -26 -70 3 -12 18 -11 24 2
43 18 26 46 28 68 6z"/>
<path d="M6040 10225 c0 -33 33 -92 75 -135 42 -43 75 -110 75 -153 0 -11 5
-50 11 -85 15 -83 48 -120 149 -170 98 -48 106 -64 119 -247 15 -199 43 -296
96 -331 51 -34 133 16 183 110 26 49 27 56 23 166 -8 219 -6 262 17 306 30 58
82 100 149 120 97 28 112 35 148 72 42 43 44 70 10 110 -37 44 -74 49 -123 18
-54 -34 -84 -40 -125 -27 -68 23 -110 91 -123 199 l-7 62 -338 0 c-298 0 -339
-2 -339 -15z m309 -129 c17 -20 2 -46 -25 -46 -29 0 -41 24 -24 45 16 19 34
19 49 1z m255 -88 c-2 -21 -134 -178 -150 -178 -30 0 -16 32 49 113 67 82 104
106 101 65z m331 -118 c0 -18 -6 -26 -23 -28 -24 -4 -38 18 -28 44 3 9 15 14
28 12 17 -2 23 -10 23 -28z m-362 -324 c3 -8 2 -30 -4 -48 -13 -48 -11 -107 7
-167 18 -60 14 -81 -16 -81 -29 0 -51 57 -57 150 -7 99 9 160 41 160 13 0 26
-6 29 -14z m51 -349 c8 -12 7 -21 -5 -32 -21 -21 -49 -9 -49 20 0 36 34 44 54
12z"/>
<path d="M3532 9613 c-17 -6 -42 -57 -42 -83 0 -31 53 -80 85 -80 38 0 85 50
85 90 0 58 -68 97 -128 73z"/>
<path d="M2854 9306 c-53 -25 -83 -58 -102 -115 -54 -158 114 -303 266 -230
148 72 144 283 -8 348 -62 27 -93 26 -156 -3z m62 -48 c4 -7 -8 -23 -30 -41
-20 -16 -44 -43 -52 -58 -20 -39 -34 -37 -34 5 0 27 8 41 40 70 41 37 64 44
76 24z m-48 -201 c2 -12 -3 -17 -17 -17 -12 0 -21 6 -21 13 0 31 32 34 38 4z"/>
<path d="M6621 8969 c-61 -31 -101 -96 -101 -165 0 -29 5 -65 11 -81 30 -80
137 -135 221 -113 96 26 154 107 146 205 -11 133 -158 215 -277 154z m-11
-148 c0 -16 7 -47 15 -70 11 -33 12 -41 1 -41 -31 0 -73 84 -60 122 3 10 14
18 25 18 14 0 19 -7 19 -29z m117 -137 c7 -20 -17 -37 -34 -23 -15 13 -6 39
13 39 8 0 17 -7 21 -16z"/>
<path d="M5539 8867 c-43 -33 -49 -84 -15 -123 18 -21 32 -28 61 -28 29 0 43
7 61 28 31 35 30 67 -2 105 -28 33 -75 41 -105 18z"/>
<path d="M4145 8591 c-90 -40 -134 -141 -103 -232 28 -82 93 -129 182 -129 72
0 122 26 159 82 84 130 -4 298 -158 298 -22 0 -58 -9 -80 -19z m8 -148 c4 -38
9 -80 13 -96 5 -23 4 -26 -10 -21 -37 14 -68 123 -47 163 22 41 38 25 44 -46z
m82 -143 c0 -8 -8 -16 -17 -18 -13 -2 -18 3 -18 18 0 15 5 20 18 18 9 -2 17
-10 17 -18z"/>
<path d="M237 2856 c-23 -42 -22 -66 5 -66 18 0 114 -68 150 -105 31 -33 78
-110 78 -130 0 -3 -24 -5 -52 -5 -72 0 -120 -15 -149 -46 -35 -37 -33 -121 4
-188 15 -27 27 -50 27 -51 0 -2 -17 -6 -37 -9 -108 -19 -203 -78 -238 -147
-23 -44 -19 -117 10 -168 32 -55 31 -58 -5 -66 -22 -5 -30 -12 -30 -29 0 -22
2 -22 62 -15 82 10 98 28 95 109 -1 46 3 66 19 87 41 57 170 98 255 83 47 -9
65 -24 75 -63 5 -24 1 -32 -31 -60 -20 -18 -51 -47 -68 -65 -18 -18 -60 -61
-94 -96 -69 -70 -102 -131 -103 -189 0 -35 8 -46 89 -127 48 -49 96 -104 105
-123 29 -62 15 -160 -27 -196 -36 -29 -3 -81 52 -81 60 0 127 127 119 225 -5
54 -6 56 -106 159 -66 68 -102 113 -103 128 -4 72 15 114 88 201 26 31 61 73
77 93 21 26 68 54 170 104 200 98 303 132 396 134 116 2 162 -16 245 -95 l70
-67 0 -67 c0 -50 4 -70 15 -76 8 -4 41 -21 73 -36 32 -15 72 -43 89 -62 30
-33 30 -37 24 -105 -9 -100 1 -127 51 -146 67 -25 83 -45 83 -106 0 -65 7 -84
31 -84 26 0 39 30 39 93 l0 55 -65 56 -65 57 2 79 c2 96 -10 118 -94 168 -34
21 -79 53 -101 72 -36 32 -39 37 -33 75 4 33 0 52 -19 88 -45 84 -22 115 58
79 28 -12 50 -17 58 -11 15 9 17 7 -51 61 -34 27 -48 47 -59 83 -27 94 -230
275 -394 354 -45 22 -95 43 -110 47 l-28 6 30 -48 c44 -68 44 -134 -1 -188
-26 -32 -100 -76 -127 -76 -5 0 -4 18 2 39 37 137 -150 284 -270 212 l-31 -20
-6 34 c-9 45 -60 143 -94 180 -46 49 -102 95 -116 95 -8 0 -25 -20 -39 -44z
m148 -371 c16 -15 25 -36 25 -55 0 -33 -37 -80 -63 -80 -8 0 -26 9 -41 21 -34
27 -36 82 -4 116 28 30 53 29 83 -2z"/>
<path d="M270 2035 c-12 -23 -11 -28 10 -50 20 -22 26 -23 38 -12 11 12 10 20
-4 50 -21 44 -26 45 -44 12z"/>
<path d="M1100 1990 c-9 -16 -8 -22 5 -26 18 -7 45 2 45 15 0 6 -9 15 -20 21
-15 8 -21 6 -30 -10z"/>
<path d="M1010 1935 c1 -17 7 -59 14 -94 12 -56 20 -69 59 -102 39 -33 46 -46
56 -99 10 -48 16 -60 31 -60 28 0 50 39 50 86 0 54 -33 95 -94 118 -33 13 -47
25 -56 49 -46 122 -60 147 -60 102z"/>
<path d="M2568 1943 c7 -3 16 -2 19 1 4 3 -2 6 -13 5 -11 0 -14 -3 -6 -6z"/>
<path d="M8648 1887 c-16 -6 -28 -14 -28 -19 0 -12 6 -10 42 12 36 22 30 24
-14 7z"/>
<path d="M1710 1815 c0 -44 1 -45 31 -45 27 0 30 3 23 23 -16 53 -24 67 -39
67 -11 0 -15 -11 -15 -45z"/>
<path d="M9120 1850 c-8 -5 -11 -12 -8 -16 10 -9 38 3 38 16 0 12 -10 13 -30
0z"/>
<path d="M8579 1833 c-36 -43 -40 -55 -9 -26 19 18 32 35 29 38 -3 3 -12 -3
-20 -12z"/>
<path d="M8667 1830 c-25 -25 -2 -38 25 -13 11 10 23 17 26 15 4 -2 8 1 10 7
6 18 -42 11 -61 -9z"/>
<path d="M8918 1822 c-25 -9 -57 -29 -70 -43 -100 -112 -107 -151 -35 -204 37
-27 52 -53 73 -124 3 -9 8 -10 17 -3 10 8 122 42 140 42 3 0 -1 -12 -9 -27
-18 -35 -18 -43 1 -43 18 0 20 -21 3 -38 -15 -15 -21 -69 -8 -77 18 -11 11
-23 -17 -30 -20 -5 -23 -9 -13 -15 10 -6 8 -9 -9 -12 -19 -2 -17 -5 13 -14 28
-9 34 -8 26 1 -8 9 -1 12 27 9 47 -3 93 -53 92 -99 0 -16 2 -48 5 -70 4 -31 4
-35 -3 -15 -7 18 -9 -2 -9 -72 l1 -97 22 15 c32 21 95 9 184 -35 80 -39 135
-94 151 -152 13 -44 13 -72 0 -64 -6 4 -7 -5 -4 -23 7 -33 -21 -67 -32 -39 -3
9 -2 22 2 29 4 7 -1 5 -12 -4 -16 -14 -23 -15 -34 -5 -8 6 -7 3 3 -9 25 -30
21 -42 -10 -36 -25 5 -27 4 -14 -11 21 -26 -11 -22 -76 8 -42 21 -53 30 -53
50 0 13 -4 27 -10 30 -5 3 -10 -3 -10 -14 0 -43 -34 -19 -49 34 -18 64 -30 74
-23 20 4 -39 12 -54 40 -79 19 -17 44 -36 55 -42 13 -7 16 -14 9 -18 -18 -11
-66 20 -116 75 -45 51 -56 56 -36 18 8 -14 7 -19 -3 -19 -20 0 -43 29 -57 73
-6 20 -14 37 -17 37 -3 0 -2 -7 1 -16 3 -8 2 -12 -4 -9 -14 9 -12 99 3 114 10
11 9 12 -3 6 -8 -4 0 6 18 23 55 53 42 120 -45 234 -26 35 -55 74 -64 87 -12
20 -26 25 -73 29 l-58 5 29 18 28 19 -34 -6 c-32 -7 -33 -6 -22 15 8 14 8 21
1 21 -6 0 -15 11 -20 25 -10 26 -23 26 -67 -3 -21 -13 -23 -13 -23 3 0 9 5 25
10 36 8 15 7 19 -5 19 -8 0 -15 7 -15 15 0 8 -7 15 -15 15 -8 0 -15 3 -15 8 0
9 -89 66 -107 68 -20 3 -16 -10 11 -35 14 -13 26 -38 28 -55 2 -17 8 -29 13
-27 6 2 8 14 6 25 l-3 21 22 -20 c19 -17 20 -21 6 -23 -26 -6 -19 -19 29 -52
51 -35 57 -50 20 -50 -14 0 -25 4 -25 8 0 9 -102 82 -114 82 -5 0 -5 -7 -2
-15 3 -9 0 -24 -6 -35 -9 -14 -9 -22 1 -34 20 -23 -1 -19 -41 8 -26 17 -40 21
-52 14 -9 -5 -30 -10 -46 -10 -17 -1 -30 -5 -30 -10 0 -5 19 -6 43 -3 30 4 61
-1 112 -19 78 -28 128 -63 149 -105 14 -26 13 -30 -7 -59 -12 -17 -41 -43 -64
-58 -24 -15 -48 -33 -54 -40 -7 -8 -31 -14 -61 -14 -39 0 -53 5 -72 25 -27 29
-36 31 -36 10 0 -9 10 -20 23 -24 18 -8 14 -9 -18 -8 -22 1 -47 9 -56 17 -9 8
-33 30 -53 48 -20 19 -36 40 -36 48 0 9 -4 12 -10 9 -15 -10 -12 5 10 40 18
29 18 34 5 45 -9 7 -25 27 -37 44 -15 23 -11 20 15 -9 26 -29 38 -37 47 -29 8
8 3 25 -20 65 -18 30 -39 63 -49 73 -13 16 -13 18 -1 14 8 -2 29 -29 47 -59
18 -30 36 -61 41 -69 7 -12 14 -10 40 10 39 31 39 43 3 69 -32 23 -46 27 -35
9 4 -7 3 -8 -4 -4 -7 4 -12 15 -12 26 0 11 -12 22 -31 29 -49 17 -58 14 -76
-24 -20 -41 -37 -47 -23 -7 l10 27 -17 -22 c-21 -25 -68 -40 -77 -24 -11 17
-23 13 -29 -9 -4 -16 0 -22 21 -26 15 -3 35 -12 46 -19 17 -13 17 -16 2 -61
-20 -60 -21 -118 0 -138 24 -25 38 -19 20 9 -15 23 -15 25 3 35 11 5 22 10 24
10 6 0 1 -63 -7 -88 -5 -14 -1 -21 16 -26 15 -5 18 -9 10 -13 -9 -3 -10 -9 -2
-18 14 -17 -6 -24 -83 -31 -33 -2 -68 -9 -79 -15 -11 -6 -22 -8 -25 -5 -8 7
76 45 100 46 11 0 15 5 11 11 -3 6 -23 9 -44 7 -21 -2 -36 0 -34 4 3 5 11 8
18 8 7 0 13 7 13 16 0 11 -7 14 -25 9 -17 -4 -22 -2 -16 6 5 9 2 10 -12 5 -10
-5 -32 -12 -48 -17 -44 -13 -75 -47 -107 -118 -34 -75 -36 -82 -9 -48 11 14
20 30 20 36 0 12 76 84 94 89 6 2 -3 -9 -20 -25 -36 -33 -91 -114 -99 -146 -4
-15 1 -32 14 -49 12 -14 21 -33 21 -42 0 -12 6 -15 24 -10 20 5 26 0 42 -40
18 -43 21 -46 57 -46 23 0 36 -4 32 -10 -3 -6 25 6 62 26 61 32 72 34 96 23
22 -10 37 -9 89 8 87 29 125 36 132 25 3 -5 -33 -20 -81 -32 l-86 -24 39 -30
c115 -91 139 -113 139 -127 0 -8 -34 -33 -75 -56 -41 -23 -97 -58 -124 -78
-77 -56 -86 -53 -267 94 l-54 44 -14 -97 -14 -96 83 -78 c119 -110 162 -142
190 -142 44 0 303 161 317 197 3 8 1 19 -6 26 -6 6 -11 28 -11 50 l0 39 38 -6
c20 -3 71 -8 112 -12 41 -3 78 -10 81 -15 3 -5 18 4 34 21 19 20 24 30 14 30
-8 0 4 15 25 33 31 27 38 38 31 53 -8 18 -9 18 -12 -2 l-4 -21 -92 23 c-51 13
-106 24 -122 24 -17 0 -51 10 -75 22 -39 20 -45 27 -43 52 2 24 0 26 -10 14
-7 -8 -20 -18 -30 -21 -16 -6 -16 -4 1 31 11 20 31 63 47 95 15 31 34 57 42
57 8 0 12 3 10 8 -7 10 127 9 135 -2 3 -5 40 -10 82 -10 42 0 76 -4 76 -9 0
-4 13 -22 30 -40 30 -32 33 -45 30 -127 -1 -58 -9 -82 -22 -74 -6 4 -8 3 -5
-3 6 -9 22 -10 102 -5 l30 2 -39 33 -38 33 26 52 c27 54 82 122 98 122 5 0 2
-10 -6 -21 -16 -23 -11 -49 9 -49 8 0 26 -15 42 -33 27 -33 37 -37 153 -67 19
-5 72 -10 118 -10 45 0 82 -1 82 -2 0 -2 7 -21 14 -43 l14 -40 21 45 c12 25
29 59 39 75 55 97 68 122 72 138 5 18 7 17 33 -3 l27 -22 21 24 20 23 -11 -23
c-7 -13 -10 -25 -8 -27 2 -1 24 -7 50 -13 l48 -9 29 46 c17 25 44 61 62 79 18
18 26 32 19 30 -9 -2 -16 10 -20 35 -6 31 -4 40 12 48 10 5 24 7 31 3 9 -5 9
-4 1 5 -6 7 -34 18 -63 26 -51 13 -52 13 -45 -8 7 -22 6 -22 -15 -3 -13 12
-21 14 -21 7 0 -8 -7 -10 -20 -6 -13 4 -22 1 -26 -9 -3 -9 -14 -16 -24 -16
-21 0 -83 -88 -76 -106 8 -21 -48 8 -91 46 -22 19 -46 40 -55 45 -140 87 -168
110 -168 133 0 22 77 153 113 194 32 34 36 52 21 93 -7 22 -14 41 -14 43 0 2
-4 1 -9 -3 -6 -3 -7 -27 -4 -53 4 -39 2 -50 -15 -65 -29 -26 -73 -14 -112 30
-17 19 -34 33 -37 29 -10 -10 20 -70 55 -108 l34 -37 -47 16 c-28 9 -69 37
-103 68 l-57 53 0 113 c0 63 -4 117 -9 121 -5 3 17 9 48 13 60 8 62 7 141 -40
22 -13 43 -24 48 -24 12 -1 -50 115 -78 145 -24 26 -25 26 -25 5 0 -27 -16
-27 -30 -1 -8 15 -17 19 -36 14 -14 -4 -31 -1 -39 6 -13 11 -15 8 -15 -16 -1
-27 -2 -26 -15 11 -8 22 -15 53 -15 70 0 36 -29 115 -42 115 -6 0 -7 8 -4 17
14 35 -32 41 -106 15z m140 -176 c2 -10 1 -34 -3 -54 -9 -47 -25 -24 -25 36 0
31 4 42 13 40 6 -3 14 -13 15 -22z m-128 -76 c0 -5 -4 -10 -10 -10 -5 0 -10 5
-10 10 0 6 5 10 10 10 6 0 10 -4 10 -10z m-746 -319 c3 -5 -3 -11 -13 -14 -14
-3 -18 -1 -14 9 6 16 19 18 27 5z m11 -101 c-4 -12 -9 -19 -12 -17 -3 3 -2 15
2 27 4 12 9 19 12 17 3 -3 2 -15 -2 -27z m625 -90 l-35 -30 33 16 c62 30 135
-6 148 -72 8 -44 -10 -74 -45 -74 -20 0 -34 8 -46 26 -13 20 -19 23 -31 13
-23 -19 -16 -49 20 -85 36 -36 34 -40 -11 -23 -67 25 -109 93 -93 150 9 31 8
32 -5 15 -22 -28 -29 -13 -11 22 20 38 62 72 90 72 18 -1 17 -4 -14 -30z m200
-141 c0 -42 -35 -79 -77 -79 -39 0 -93 27 -93 48 0 10 5 10 22 -2 53 -37 118
2 118 71 1 38 1 38 15 13 8 -14 14 -37 15 -51z m220 21 c28 -22 24 -25 -14
-10 -14 5 -26 14 -26 20 0 15 12 12 40 -10z m-937 -72 c9 -5 17 -13 17 -18 0
-6 -8 -10 -17 -11 -10 0 -2 -5 17 -11 40 -11 63 -28 37 -28 -9 0 -21 -8 -26
-19 -15 -26 -80 -35 -120 -15 -48 24 -41 33 54 58 11 3 -2 3 -28 1 -35 -4 -49
-1 -53 9 -11 27 -132 -5 -193 -51 -20 -15 -30 -19 -22 -10 18 22 125 87 170
103 37 13 131 9 164 -8z m-418 -103 c-17 -33 -25 -41 -25 -27 0 11 5 24 11 27
5 4 15 18 20 32 5 14 12 23 15 21 2 -3 -7 -27 -21 -53z m865 19 c70 -6 128
-20 119 -28 -2 -3 -28 0 -57 5 -29 6 -111 9 -183 7 -71 -2 -129 0 -129 4 0 19
40 28 105 23 39 -3 104 -8 145 -11z m940 -29 c0 -2 -10 -9 -22 -15 -22 -11
-22 -10 -4 4 21 17 26 19 26 11z m-1292 -17 c-5 -14 -84 -36 -136 -37 -46 -1
-37 20 14 36 54 16 127 17 122 1z m-398 -17 c0 -22 -13 -39 -25 -35 -7 3 -16
-3 -20 -13 -7 -17 -8 -17 -15 2 -5 11 -9 26 -9 34 -1 11 2 11 15 0 15 -12 18
-11 28 4 12 18 26 23 26 8z m15 -91 c-3 -5 -11 -10 -16 -10 -6 0 -7 5 -4 10 3
6 11 10 16 10 6 0 7 -4 4 -10z"/>
<path d="M9047 1820 c4 -15 14 -20 40 -20 18 0 51 -9 73 -20 44 -23 54 -25 45
-10 -9 15 -106 61 -116 55 -4 -3 -10 -1 -14 5 -12 19 -33 11 -28 -10z"/>
<path d="M9155 1820 c3 -5 8 -10 11 -10 2 0 4 5 4 10 0 6 -5 10 -11 10 -5 0
-7 -4 -4 -10z"/>
<path d="M9185 1810 c-3 -5 -1 -10 4 -10 6 0 11 5 11 10 0 6 -2 10 -4 10 -3 0
-8 -4 -11 -10z"/>
<path d="M8576 1760 c-26 -28 -44 -55 -41 -60 11 -17 23 -11 29 15 4 17 16 27
38 33 17 4 34 14 36 22 5 13 3 13 -11 1 -19 -15 -23 -1 -5 17 6 6 9 14 6 17
-3 3 -26 -17 -52 -45z"/>
<path d="M8306 1775 c4 -8 13 -15 21 -15 13 0 13 3 3 15 -7 8 -16 15 -21 15
-5 0 -6 -7 -3 -15z"/>
<path d="M7 1763 c-10 -10 -8 -62 3 -83 6 -12 17 -16 30 -13 33 9 34 22 5 64
-31 43 -29 42 -38 32z"/>
<path d="M1284 1744 c-9 -36 14 -50 41 -24 19 20 19 20 0 35 -28 20 -34 19
-41 -11z"/>
<path d="M687 1733 l-27 -14 20 -29 c29 -41 38 -45 61 -24 24 22 24 28 -3 57
-21 23 -25 23 -51 10z"/>
<path d="M9210 1746 c0 -2 8 -10 18 -17 15 -13 16 -12 3 4 -13 16 -21 21 -21
13z"/>
<path d="M9274 1694 c3 -9 6 -18 6 -21 0 -3 7 0 15 7 13 11 13 15 3 21 -21 13
-31 10 -24 -7z"/>
<path d="M2448 1693 c7 -3 16 -2 19 1 4 3 -2 6 -13 5 -11 0 -14 -3 -6 -6z"/>
<path d="M2480 1684 c0 -2 15 -11 33 -20 27 -14 30 -15 19 -2 -11 14 -52 31
-52 22z"/>
<path d="M8190 1683 c0 -3 12 -27 27 -52 23 -39 28 -43 31 -24 4 28 -24 83
-43 83 -8 0 -15 -3 -15 -7z"/>
<path d="M8416 1661 c5 -25 5 -25 -10 -7 -22 27 -31 13 -16 -23 l12 -31 34 32
c19 18 34 35 34 39 0 4 -13 9 -30 11 -27 4 -29 2 -24 -21z"/>
<path d="M8260 1670 c0 -6 11 -33 25 -60 14 -27 25 -59 25 -70 0 -24 -47 -47
-64 -30 -15 15 -23 12 -29 -10 -4 -16 2 -22 33 -31 48 -14 90 -2 110 33 13 24
12 31 -10 78 -25 54 -62 100 -80 100 -5 0 -10 -5 -10 -10z"/>
<path d="M9240 1666 c0 -9 5 -16 10 -16 6 0 10 4 10 9 0 6 -4 13 -10 16 -5 3
-10 -1 -10 -9z"/>
<path d="M8050 1655 c0 -8 5 -15 10 -15 6 0 10 7 10 15 0 8 -4 15 -10 15 -5 0
-10 -7 -10 -15z"/>
<path d="M2570 1625 c13 -14 26 -25 28 -25 3 0 -5 11 -18 25 -13 14 -26 25
-28 25 -3 0 5 -11 18 -25z"/>
<path d="M8444 1625 c-4 -10 -1 -29 7 -44 14 -25 153 -129 264 -197 33 -21 69
-45 81 -56 20 -18 21 -18 39 2 11 12 15 24 9 29 -5 4 -79 54 -164 111 -85 56
-172 118 -192 138 -33 32 -38 33 -44 17z"/>
<path d="M1861 1586 c-19 -20 -21 -28 -11 -45 12 -24 31 -18 63 17 17 18 17
21 2 36 -22 21 -27 20 -54 -8z"/>
<path d="M8096 1601 c-3 -4 1 -17 9 -27 10 -15 16 -16 26 -7 6 6 9 19 6 27 -7
17 -32 22 -41 7z"/>
<path d="M8390 1529 c-9 -17 -8 -23 7 -35 22 -16 30 -17 38 -4 3 6 -4 10 -16
10 -18 0 -20 3 -11 12 14 14 16 38 2 38 -5 0 -14 -9 -20 -21z"/>
<path d="M8512 1483 c2 -10 11 -19 21 -21 16 -3 17 -1 5 17 -16 25 -31 27 -26
4z"/>
<path d="M8347 1455 c-15 -21 -15 -24 -2 -19 13 5 15 2 10 -18 -6 -23 -4 -25
19 -23 14 2 27 -3 30 -12 3 -8 10 -12 16 -8 6 4 5 16 -2 33 -32 81 -41 87 -71
47z"/>
<path d="M8330 1380 c0 -5 5 -10 11 -10 5 0 7 5 4 10 -3 6 -8 10 -11 10 -2 0
-4 -4 -4 -10z"/>
<path d="M2000 1339 c-19 -36 -20 -44 -8 -56 12 -12 19 -8 46 26 32 39 31 44
-5 65 -8 4 -20 -8 -33 -35z"/>
<path d="M8872 1320 c-1 -44 1 -50 9 -32 5 15 6 36 0 55 -8 29 -9 27 -9 -23z"/>
<path d="M770 1322 c-10 -23 -9 -29 10 -44 26 -21 34 -22 48 -5 7 9 3 21 -18
43 l-28 32 -12 -26z"/>
<path d="M10040 1329 c0 -5 5 -7 10 -4 6 3 10 8 10 11 0 2 -4 4 -10 4 -5 0
-10 -5 -10 -11z"/>
<path d="M1261 1306 c-9 -11 -6 -17 13 -30 31 -19 45 -20 70 -1 18 14 18 15
-5 23 -55 21 -66 22 -78 8z"/>
<path d="M1545 1264 c-125 -38 -228 -64 -256 -64 -83 0 -177 -63 -264 -175
l-66 -84 20 -20 c20 -20 24 -32 36 -102 5 -33 36 -79 53 -79 29 1 36 24 42
127 8 123 33 197 82 238 40 34 70 31 144 -10 72 -41 90 -42 162 -15 71 27 123
26 149 -2 47 -51 68 -166 43 -234 -13 -33 -16 -140 -6 -172 11 -34 43 -47 66
-27 15 13 18 37 22 148 4 111 8 139 27 180 35 72 77 103 136 98 91 -8 132 -56
144 -166 5 -43 15 -84 23 -92 30 -30 68 13 68 77 0 34 13 45 38 31 21 -11 42
-95 42 -168 0 -79 39 -138 67 -100 14 18 33 90 33 125 0 25 -6 35 -29 46 -34
18 -79 87 -112 171 -13 33 -29 67 -36 76 -8 9 -51 27 -96 39 -173 47 -277 92
-277 120 0 5 -17 21 -37 35 -49 32 -110 32 -218 -1z"/>
<path d="M8004 1275 c26 -19 42 -19 26 0 -7 8 -20 15 -29 15 -13 -1 -13 -3 3
-15z"/>
<path d="M9923 1229 c-6 -6 -29 -12 -52 -14 -23 -1 -45 -5 -48 -9 -4 -3 -29
-6 -57 -6 l-51 0 30 -19 c23 -13 34 -31 44 -69 16 -56 11 -52 146 -108 111
-47 161 -77 170 -104 8 -24 22 -25 76 -3 l41 16 -6 53 c-9 75 -28 128 -48 132
-14 3 -18 -3 -18 -27 0 -35 -19 -81 -33 -81 -5 0 -4 6 2 14 7 8 11 32 9 53 -2
30 -7 38 -23 38 -13 0 -19 6 -17 18 4 23 -20 22 -41 -3 -23 -27 -36 -25 -48 8
-5 15 -12 34 -16 42 -7 17 -10 26 -12 39 0 5 -10 11 -22 14 -12 3 -18 10 -14
16 8 14 2 14 -12 0z"/>
<path d="M8373 1163 c-7 -2 -13 -8 -13 -13 0 -12 33 -5 38 8 4 12 -4 14 -25 5z"/>
<path d="M110 1150 c-19 -4 -52 -11 -73 -14 l-37 -7 0 -110 0 -109 27 -11 c37
-14 63 -5 115 36 75 60 102 71 146 56 57 -21 99 -57 113 -98 18 -57 66 -122
95 -129 35 -9 46 11 37 61 -4 22 -7 58 -8 80 l0 40 47 3 c40 3 51 -1 83 -29
20 -18 41 -44 47 -58 16 -40 37 -135 32 -143 -3 -4 -2 -19 2 -33 5 -19 12 -25
28 -23 24 3 41 35 62 115 8 31 19 62 24 69 8 8 3 10 -15 6 -39 -7 -65 4 -136
55 -36 27 -110 68 -165 93 -54 24 -132 65 -172 91 -94 62 -166 78 -252 59z"/>
<path d="M9377 1100 c-3 -12 0 -17 8 -14 7 3 15 -2 19 -11 3 -10 12 -15 21
-11 8 3 15 2 15 -2 0 -4 10 -12 23 -18 12 -6 39 -21 60 -33 30 -19 37 -20 37
-8 0 9 -13 18 -30 22 -16 4 -30 11 -30 16 0 5 -5 9 -12 9 -7 0 -27 14 -45 32
-39 37 -59 43 -66 18z"/>
<path d="M7995 1020 c-7 -12 12 -12 40 0 18 8 17 9 -7 9 -15 1 -30 -3 -33 -9z"/>
<path d="M1442 1003 c-5 -10 -15 -36 -22 -58 -7 -22 -21 -52 -31 -67 -23 -31
-25 -91 -4 -108 23 -19 61 -4 84 34 25 40 28 129 7 181 -17 40 -22 42 -34 18z"/>
<path d="M7945 1003 c-32 -9 -59 -31 -79 -65 l-19 -33 39 36 c21 20 53 44 69
52 30 16 27 19 -10 10z"/>
<path d="M2680 987 c0 -2 15 -16 33 -33 l32 -29 -29 33 c-28 30 -36 37 -36 29z"/>
<path d="M9600 965 c7 -9 15 -13 17 -11 7 7 -7 26 -19 26 -6 0 -6 -6 2 -15z"/>
<path d="M9877 961 c-3 -11 0 -24 5 -28 7 -3 8 -1 4 5 -5 8 0 11 16 8 13 -2
22 -9 21 -15 -2 -6 4 -11 12 -11 9 0 12 6 9 15 -6 14 -17 19 -29 13 -2 -2 -10
6 -18 16 -13 18 -14 18 -20 -3z"/>
<path d="M9371 804 c0 -11 3 -14 6 -6 3 7 2 16 -1 19 -3 4 -6 -2 -5 -13z"/>
<path d="M9094 748 c2 -32 6 -61 9 -65 9 -9 7 66 -3 97 -5 17 -7 7 -6 -32z"/>
<path d="M9162 770 c0 -19 2 -27 5 -17 2 9 2 25 0 35 -3 9 -5 1 -5 -18z"/>
<path d="M9251 784 c0 -11 3 -14 6 -6 3 7 2 16 -1 19 -3 4 -6 -2 -5 -13z"/>
<path d="M9200 774 c0 -8 5 -12 10 -9 6 3 10 10 10 16 0 5 -4 9 -10 9 -5 0
-10 -7 -10 -16z"/>
<path d="M9828 743 c-13 -16 -37 -44 -52 -64 l-27 -37 43 -21 43 -22 47 53
c53 59 57 68 28 68 -11 0 -19 3 -19 8 8 48 -24 56 -63 15z"/>
<path d="M8690 690 c0 -13 43 -30 74 -30 12 0 33 -11 46 -25 25 -27 34 -27 24
-1 -12 31 -144 82 -144 56z"/>
<path d="M525 653 c-3 -21 -9 -60 -14 -86 -10 -58 10 -94 46 -83 43 14 48 100
9 174 -22 42 -34 41 -41 -5z"/>
<path d="M9894 646 c-20 -24 -37 -48 -38 -52 -3 -20 57 -8 87 17 29 24 30 29
19 53 -6 14 -16 26 -21 26 -6 0 -27 -20 -47 -44z"/>
<path d="M10084 675 c-22 -17 -38 -20 -29 -5 8 13 -5 12 -32 -3 -35 -20 -113
-97 -113 -112 0 -8 5 -17 11 -20 6 -4 7 -14 3 -24 -4 -9 -8 -38 -9 -66 -1 -27
-5 -62 -9 -77 -8 -26 -6 -28 24 -28 24 0 43 11 83 51 47 46 49 59 5 21 -10 -8
-18 -12 -18 -9 0 13 73 108 78 102 3 -2 13 13 23 35 10 22 24 40 32 40 15 0
47 57 47 84 0 9 -7 16 -15 16 -8 0 -15 -3 -15 -8 0 -4 -10 -18 -23 -32 -13
-14 -37 -44 -53 -66 -36 -50 -134 -160 -134 -151 0 3 20 29 45 57 50 56 96
125 93 137 -1 5 6 21 16 36 22 33 17 43 -10 22z"/>
<path d="M8460 665 c0 -8 7 -15 15 -15 8 0 15 7 15 15 0 8 -7 15 -15 15 -8 0
-15 -7 -15 -15z"/>
<path d="M2400 656 c0 -2 8 -10 18 -17 15 -13 16 -12 3 4 -13 16 -21 21 -21
13z"/>
<path d="M1821 624 c-14 -33 -5 -66 17 -62 22 4 31 88 9 88 -8 0 -19 -12 -26
-26z"/>
<path d="M8710 636 c0 -2 9 -6 20 -9 11 -3 20 -1 20 4 0 5 -9 9 -20 9 -11 0
-20 -2 -20 -4z"/>
<path d="M8472 584 c3 -19 93 -48 183 -59 45 -6 55 -5 55 8 0 26 -25 36 -98
41 -39 2 -75 6 -79 9 -4 2 -21 7 -36 11 -24 6 -28 4 -25 -10z"/>
<path d="M9346 585 c4 -8 10 -15 15 -15 5 0 9 7 9 15 0 8 -7 15 -15 15 -9 0
-12 -6 -9 -15z"/>
<path d="M8125 540 c-10 -12 -34 -30 -52 -41 -41 -26 -42 -50 -2 -83 41 -35
74 -42 111 -24 l31 14 -44 13 c-77 23 -89 30 -89 51 0 32 88 67 105 41 6 -10
-11 -24 -33 -27 -20 -3 -25 -11 -19 -28 12 -30 82 4 74 36 -3 11 0 18 9 18 19
0 54 -36 54 -56 0 -17 21 -15 27 3 5 15 -108 103 -133 103 -11 0 -29 -9 -39
-20z"/>
<path d="M9657 501 c3 -11 11 -22 19 -25 11 -4 12 -2 4 14 -14 27 -29 34 -23
11z"/>
<path d="M8328 478 c12 -13 22 -30 22 -37 0 -7 5 -9 10 -6 17 10 12 20 -22 45
l-33 23 23 -25z"/>
<path d="M10165 479 c-4 -6 -5 -12 -2 -15 7 -7 37 7 37 17 0 13 -27 11 -35 -2z"/>
<path d="M9544 451 c2 -14 7 -24 12 -22 5 1 8 7 7 12 -2 5 2 9 7 9 18 0 11 18
-9 23 -16 4 -19 0 -17 -22z"/>
<path d="M7975 460 c-8 -13 145 -140 169 -140 12 0 38 11 59 25 39 27 50 43
18 25 -50 -26 -140 0 -198 57 -23 23 -45 38 -48 33z"/>
<path d="M10035 390 c-50 -50 -48 -62 4 -35 24 12 59 71 48 81 -2 2 -25 -19
-52 -46z"/>
<path d="M9340 366 c0 -14 -12 -38 -26 -55 -28 -34 -21 -41 11 -13 47 41 58
61 45 77 -18 22 -30 18 -30 -9z"/>
<path d="M9470 348 c0 -25 3 -29 20 -25 11 3 23 0 27 -5 4 -7 11 -4 20 7 11
16 13 16 13 3 0 -20 26 -32 73 -36 9 -1 17 -6 17 -12 0 -5 -7 -7 -15 -4 -23 9
-18 -14 6 -27 15 -8 19 -8 15 0 -9 14 7 14 21 0 7 -7 12 -3 17 17 5 20 3 30
-8 36 -9 5 -17 7 -19 6 -1 -2 -16 5 -31 16 -21 13 -30 15 -36 6 -5 -9 -9 -9
-14 -1 -9 13 -61 41 -87 46 -15 3 -19 -2 -19 -27z"/>
<path d="M1245 325 c-49 -13 -155 -45 -235 -71 -176 -57 -431 -124 -470 -124
-38 0 -43 -11 -35 -76 l6 -54 730 0 730 0 -7 57 c-13 114 -58 159 -223 222
-190 73 -340 87 -496 46z"/>
<path d="M2425 304 c-89 -21 -260 -81 -297 -104 -18 -11 -44 -20 -58 -20 -49
-1 -60 -20 -60 -104 l0 -76 243 0 242 0 34 75 c33 74 34 75 105 109 110 53
124 102 37 126 -51 14 -175 11 -246 -6z"/>
<path d="M9175 290 c11 -21 23 -30 41 -30 l25 0 -33 30 c-18 17 -36 30 -40 30
-5 0 -2 -13 7 -30z"/>
<path d="M9345 276 c-12 -28 -13 -53 -6 -98 0 -4 27 -15 59 -24 31 -9 62 -19
67 -22 6 -4 15 -7 20 -8 6 -1 35 -11 65 -22 98 -35 147 -36 105 -2 -8 7 -12
17 -8 22 3 6 0 9 -8 6 -8 -3 -20 1 -27 9 -18 18 -33 17 -26 -2 4 -8 1 -15 -5
-15 -6 0 -11 7 -11 16 0 10 -6 14 -15 10 -9 -3 -15 0 -15 9 0 8 -4 15 -10 15
-5 0 -10 -6 -10 -12 0 -9 -2 -10 -8 -2 -4 6 -23 21 -42 33 -19 11 -29 21 -21
21 8 0 11 7 8 19 -3 13 0 18 7 15 7 -3 13 2 13 10 0 8 -3 14 -6 13 -3 0 -25 9
-48 21 -55 29 -61 28 -78 -12z m75 -36 c12 -8 11 -10 -7 -10 -13 0 -23 5 -23
10 0 13 11 13 30 0z"/>
<path d="M8750 280 c0 -5 -9 -10 -20 -10 -25 0 -45 -40 -36 -73 3 -13 12 -24
21 -24 8 0 13 2 10 5 -2 2 12 24 31 48 20 24 33 48 29 54 -8 13 -35 13 -35 0z"/>
<path d="M9497 241 c6 -23 36 -45 47 -34 4 4 9 -3 13 -15 4 -18 10 -21 32 -16
14 4 31 11 36 17 7 7 4 8 -7 4 -10 -3 -24 1 -33 9 -8 9 -15 12 -15 7 0 -4 -5
0 -11 10 -5 9 -18 17 -27 17 -10 0 -23 5 -29 11 -9 9 -10 6 -6 -10z"/>
<path d="M0 120 l0 -120 215 0 215 0 -6 27 c-27 122 -25 120 -179 158 -60 14
-136 33 -168 41 -32 8 -63 14 -68 14 -5 0 -9 -54 -9 -120z"/>
<path d="M9480 223 c5 -2 8 -9 4 -14 -3 -5 0 -9 6 -9 15 0 7 23 -8 26 -7 1 -8
0 -2 -3z"/>
<path d="M8810 204 c0 -8 5 -12 10 -9 13 8 13 2 -2 -30 -6 -14 -17 -24 -24
-21 -10 4 -10 -2 -2 -24 10 -31 43 -49 59 -33 6 6 4 15 -5 22 -10 9 -13 19 -7
30 5 9 9 31 9 49 1 25 -3 32 -19 32 -11 0 -19 -7 -19 -16z"/>
<path d="M8825 25 c17 -8 41 -14 55 -14 l25 0 -25 11 c-14 5 -38 12 -55 14
l-30 3 30 -14z"/>
</g>
</svg>
